<?xml version="1.0" standalone="no"?>
<!DOCTYPE svg PUBLIC "-//W3C//DTD SVG 20010904//EN"
 "http://www.w3.org/TR/2001/REC-SVG-20010904/DTD/svg10.dtd">
<svg version="1.0" xmlns="http://www.w3.org/2000/svg"
 width="240.000000pt" height="240.000000pt" viewBox="0 0 240.000000 240.000000"
 preserveAspectRatio="xMidYMid meet">
<metadata>
Created by potrace 1.14, written by Peter Selinger 2001-2017
</metadata>
<g transform="translate(0.000000,240.000000) scale(0.100000,-0.100000)"
fill="#000000" stroke="none">
<path d="M1208 2235 c-1 -1 -52 -5 -113 -9 -60 -3 -128 -10 -150 -16 -22 -6
-53 -13 -70 -16 -16 -3 -43 -12 -59 -20 -16 -8 -34 -14 -41 -14 -17 0 -131
-60 -196 -104 -49 -33 -142 -122 -195 -187 -74 -91 -157 -286 -178 -419 -3
-19 -8 -48 -12 -65 -7 -39 -12 -285 -4 -285 3 0 6 -22 7 -49 2 -40 -2 -52 -22
-71 -31 -29 -33 -75 -5 -106 l21 -21 -29 -6 c-29 -6 -40 -20 -48 -65 -5 -25
18 -51 116 -135 39 -34 42 -38 18 -32 -69 17 -126 -88 -70 -132 65 -52 325
-229 362 -246 61 -29 178 -30 235 -3 22 11 43 19 46 18 7 -1 20 -4 99 -22 92
-21 139 -24 295 -23 148 1 185 5 335 39 13 3 26 7 28 9 2 2 21 -5 43 -17 21
-11 46 -21 56 -23 10 -2 20 -4 23 -5 31 -11 173 22 198 47 7 7 17 13 22 13 5
0 15 6 22 12 7 7 50 38 95 68 46 30 83 58 83 63 0 4 6 7 14 7 7 0 37 21 65 48
44 41 50 51 45 77 -7 42 -36 68 -77 69 l-35 1 42 35 c78 65 116 108 116 129 0
34 -29 71 -57 71 l-24 0 20 26 c12 15 21 38 21 53 -1 29 -21 61 -39 61 -8 0
-9 22 -4 77 11 130 5 337 -11 384 -3 8 -7 25 -10 39 -22 123 -112 314 -191
407 -41 48 -132 134 -147 139 -10 3 -18 9 -18 13 0 4 -24 21 -52 36 -29 16
-56 33 -59 38 -3 5 -10 9 -15 9 -12 1 -32 8 -79 29 -37 16 -67 26 -106 33 -8
2 -25 6 -39 9 -49 13 -86 18 -165 23 -44 3 -85 7 -92 9 -6 2 -13 2 -15 0z"/>
</g>
</svg>
